<?xml version="1.0" standalone="no"?>
<!DOCTYPE svg PUBLIC "-//W3C//DTD SVG 20010904//EN"
 "http://www.w3.org/TR/2001/REC-SVG-20010904/DTD/svg10.dtd">
<svg version="1.0" xmlns="http://www.w3.org/2000/svg"
 width="2224.000000pt" height="1852.000000pt" viewBox="0 0 2224.000000 1852.000000"
 preserveAspectRatio="xMidYMid meet">

<g transform="translate(0.000000,1852.000000) scale(0.100000,-0.100000)"
fill="#000000" stroke="none">
<path d="M11395 15744 c-16 -2 -73 -9 -125 -14 -334 -37 -650 -115 -1216 -301
-198 -64 -271 -97 -309 -137 -31 -34 -53 -81 -54 -120 -1 -13 -14 -42 -30 -65
-45 -66 -117 -216 -143 -298 -20 -66 -23 -93 -22 -244 0 -126 6 -202 22 -295
11 -69 37 -249 57 -400 49 -372 74 -489 127 -595 32 -63 88 -132 123 -151 30
-16 33 -22 39 -83 3 -36 6 -145 7 -241 0 -197 7 -274 37 -410 22 -100 72 -235
88 -235 18 0 34 -17 27 -28 -4 -7 -9 -4 -15 9 -6 14 -7 11 -3 -10 8 -38 47
-94 63 -89 6 3 12 9 12 14 0 4 -7 6 -15 3 -20 -8 -19 9 3 49 18 34 38 40 60
20 7 -7 24 -13 37 -13 13 0 27 -4 30 -10 3 -5 15 -10 26 -10 11 0 17 5 14 10
-3 6 1 10 9 10 10 0 13 6 10 15 -4 8 -2 15 4 15 6 0 13 -6 15 -12 4 -10 6 -10
6 0 1 6 8 12 17 12 10 0 14 -6 10 -15 -4 -10 1 -15 14 -15 14 0 18 5 13 17 -5
13 -2 15 11 10 14 -5 17 -3 12 8 -3 10 1 15 13 15 12 0 17 7 16 23 -1 12 7 30
19 40 13 12 17 21 10 25 -14 9 -11 52 5 61 19 12 16 75 -5 99 -10 12 -24 22
-30 22 -19 0 -35 25 -24 36 7 7 0 18 -20 32 -16 13 -30 31 -30 42 0 21 12 25
89 34 26 2 48 11 53 20 5 9 16 16 23 16 8 0 15 6 15 14 0 8 19 31 42 50 32 28
42 44 44 71 2 21 -2 37 -11 42 -20 12 -65 82 -71 112 -4 20 0 28 18 36 17 7
25 22 30 55 12 68 36 121 73 160 52 55 64 86 52 134 -6 23 -16 50 -24 61 -7
11 -13 25 -13 32 0 7 -9 32 -19 56 -11 23 -25 60 -31 82 -6 22 -18 54 -26 72
-8 17 -14 37 -14 45 0 7 -7 23 -15 35 -8 12 -16 34 -18 50 -2 16 -7 35 -11 42
-5 7 -10 28 -12 47 -2 19 -10 41 -19 50 -18 18 -20 38 -2 28 9 -6 9 -4 1 7
-16 21 -25 65 -28 146 -2 40 -8 78 -13 85 -6 7 -11 61 -11 119 l-1 105 37 20
c20 10 43 25 50 31 7 7 22 13 32 13 10 0 22 5 25 10 8 13 153 13 212 -1 27 -6
71 -21 98 -34 28 -12 65 -26 83 -30 18 -4 36 -13 39 -21 3 -8 10 -14 15 -14 5
0 39 -14 75 -30 36 -17 71 -29 77 -27 6 2 65 -24 131 -58 119 -61 369 -155
517 -194 123 -33 254 -51 370 -51 l106 0 60 -45 c69 -52 204 -196 343 -365
201 -247 297 -396 361 -563 23 -60 49 -112 57 -115 21 -8 67 50 108 137 34 72
35 75 30 175 -3 55 -10 124 -15 151 -11 57 -82 277 -91 285 -4 3 -15 25 -26
50 -11 25 -23 50 -28 55 -22 29 -56 85 -51 85 4 0 -5 15 -20 34 -14 19 -26 38
-26 43 0 4 -31 37 -68 73 -141 135 -187 157 -291 138 -45 -8 -56 -7 -72 8 -10
9 -19 23 -19 31 0 7 -3 13 -8 13 -4 0 -16 16 -27 37 -11 20 -41 59 -67 87 -26
28 -48 57 -48 64 0 6 -7 12 -15 12 -8 0 -15 4 -15 9 0 5 -27 39 -60 75 -33 37
-60 71 -60 76 0 6 -7 10 -15 10 -8 0 -15 7 -15 15 0 8 -5 15 -12 15 -6 0 -9 3
-5 6 3 3 -8 20 -24 37 -44 46 -54 59 -75 92 -10 17 -35 45 -54 62 -19 18 -29
33 -22 33 7 0 4 8 -8 20 -11 11 -20 27 -20 35 0 8 -6 15 -14 15 -8 0 -13 8
-12 18 2 9 -3 26 -10 37 -8 12 -12 31 -10 42 3 15 1 20 -9 17 -18 -7 -29 14
-15 31 6 8 7 16 2 19 -15 9 -8 69 12 98 10 15 15 31 12 36 -3 6 1 15 10 22 8
7 13 19 10 27 -3 8 2 13 13 13 14 0 18 6 15 26 -2 20 0 24 9 15 6 -6 16 -11
22 -11 5 0 4 4 -4 9 -11 7 -9 11 8 21 13 7 20 17 17 26 -3 8 0 13 7 11 7 -1
11 6 9 16 -2 9 2 17 8 17 5 0 10 -5 10 -11 0 -5 5 -7 11 -4 6 4 8 13 5 21 -3
8 1 14 9 14 9 0 12 6 9 15 -4 8 -1 15 5 15 6 0 11 -5 11 -11 0 -5 5 -7 11 -4
6 4 8 13 5 21 -3 8 0 13 7 11 7 -1 11 6 9 16 -2 9 2 17 8 17 5 0 10 -5 10 -11
0 -5 5 -7 11 -4 6 4 8 12 6 19 -3 7 6 13 21 14 31 3 55 21 48 39 -3 8 2 13 14
13 11 0 24 9 30 19 5 11 26 25 46 33 27 9 34 17 30 31 -4 16 0 18 20 14 49 -9
22 9 -54 35 -213 74 -377 99 -677 103 -132 2 -253 1 -270 -1z m-1027 -2133 c4
-27 -21 -47 -88 -73 -47 -19 -115 -24 -106 -9 3 5 27 12 53 16 59 9 125 52
119 78 -3 11 0 17 7 14 7 -2 13 -14 15 -26z m-304 -1487 c4 -10 1 -14 -6 -12
-15 5 -23 28 -10 28 5 0 13 -7 16 -16z m106 6 c0 -5 -4 -10 -10 -10 -5 0 -10
5 -10 10 0 6 5 10 10 10 6 0 10 -4 10 -10z"/>
<path d="M12435 15600 c3 -5 11 -10 16 -10 6 0 7 5 4 10 -3 6 -11 10 -16 10
-6 0 -7 -4 -4 -10z"/>
<path d="M12571 15537 c2 -2 18 -11 34 -21 l30 -17 -24 20 c-13 12 -28 21 -34
21 -6 0 -8 -1 -6 -3z"/>
<path d="M12700 15461 c0 -5 7 -12 16 -15 14 -5 15 -4 4 9 -14 17 -20 19 -20
6z"/>
<path d="M13290 14936 c0 -2 8 -10 18 -17 15 -13 16 -12 3 4 -13 16 -21 21
-21 13z"/>
<path d="M15591 14619 c-99 -44 -175 -133 -205 -240 -23 -77 -19 -334 4 -334
317 4 1672 18 2445 25 1087 10 1657 19 1665 27 21 19 -78 24 -507 23 -263 0
-489 -2 -503 -4 -14 -2 -441 -7 -950 -10 -509 -4 -1193 -9 -1520 -12 l-595 -6
6 133 c8 188 33 241 170 359 73 63 70 76 -10 39z"/>
<path d="M15689 14422 c-181 -107 -217 -158 -159 -224 28 -31 32 -33 90 -31
34 2 87 11 118 22 65 23 129 36 155 33 10 -1 16 2 13 7 -4 5 -1 11 5 13 6 2
-7 4 -29 5 -125 5 -173 118 -89 211 35 38 -1 26 -104 -36z"/>
<path d="M16060 14451 c-72 -45 -84 -68 -82 -158 0 -13 -4 -23 -10 -23 -5 0
-6 6 -2 13 4 6 -2 3 -14 -7 -14 -12 -20 -26 -16 -38 3 -11 0 -18 -8 -18 -10 0
-9 -3 2 -9 8 -6 18 -7 23 -4 4 3 17 -3 28 -13 19 -17 22 -17 87 4 37 11 85 24
107 28 61 10 74 22 26 22 -109 2 -171 113 -106 190 43 51 32 55 -35 13z"/>
<path d="M16390 14459 c-55 -34 -80 -66 -80 -104 0 -21 -9 -44 -25 -63 -26
-31 -33 -62 -14 -62 5 0 8 -4 4 -9 -14 -24 67 -53 91 -33 5 5 37 17 72 27 79
23 96 40 48 49 -78 15 -113 113 -61 174 14 17 25 33 25 36 0 12 -26 5 -60 -15z"/>
<path d="M4129 14202 c-62 -40 -122 -112 -147 -177 -30 -78 -36 -164 -23 -312
6 -70 18 -585 26 -1143 15 -960 17 -1019 36 -1082 17 -59 39 -97 39 -69 0 5
-4 12 -9 16 -21 12 -31 126 -36 435 -30 1610 -33 1786 -24 1795 6 6 253 11
687 13 372 2 671 6 665 10 -6 4 -64 6 -130 5 -65 -1 -365 -2 -668 -3 -438 0
-549 2 -545 12 2 7 3 56 2 108 -4 189 35 283 163 388 49 40 25 42 -36 4z"/>
<path d="M4963 14060 c-42 -25 -57 -55 -56 -111 1 -62 16 -86 62 -99 37 -10
101 -4 101 9 0 4 -16 13 -36 20 -39 14 -74 62 -74 101 0 14 9 40 21 59 11 18
19 35 17 37 -2 2 -18 -5 -35 -16z"/>
<path d="M4307 14045 c-64 -44 -75 -82 -44 -158 13 -31 55 -47 124 -47 53 0
62 13 18 29 -19 7 -44 24 -55 38 -27 35 -27 102 1 137 27 34 6 35 -44 1z"/>
<path d="M4628 14045 c-34 -31 -42 -62 -34 -123 8 -60 33 -82 95 -82 60 0 86
15 43 25 -36 7 -80 48 -88 82 -8 32 3 83 23 105 26 29 -7 23 -39 -7z"/>
<path d="M7656 13710 c7 -7 19 -7 35 -1 23 9 22 10 -10 10 -24 1 -32 -2 -25
-9z"/>
<path d="M7761 13715 c9 -8 209 -12 209 -3 0 4 -48 8 -107 8 -58 0 -104 -2
-102 -5z"/>
<path d="M5493 13693 c15 -2 39 -2 55 0 15 2 2 4 -28 4 -30 0 -43 -2 -27 -4z"/>
<path d="M5608 13693 c6 -2 18 -2 25 0 6 3 1 5 -13 5 -14 0 -19 -2 -12 -5z"/>
<path d="M5868 13693 c123 -2 321 -2 440 0 119 1 19 2 -223 2 -242 0 -340 -1
-217 -2z"/>
<path d="M10957 13673 c-10 -9 -9 -23 1 -23 5 0 9 7 9 15 0 17 -1 18 -10 8z"/>
<path d="M13742 13660 c0 -14 2 -19 5 -12 2 6 2 18 0 25 -3 6 -5 1 -5 -13z"/>
<path d="M10935 13630 c3 -5 8 -10 11 -10 2 0 4 5 4 10 0 6 -5 10 -11 10 -5 0
-7 -4 -4 -10z"/>
<path d="M10970 13620 c0 -5 12 -10 28 -10 21 0 24 2 12 10 -20 13 -40 13 -40
0z"/>
<path d="M11234 13440 c-31 -12 -64 -59 -64 -91 0 -60 78 -112 144 -95 53 13
78 105 39 148 -17 20 -73 49 -90 47 -4 0 -18 -4 -29 -9z"/>
<path d="M15968 13413 c-64 -69 -63 -65 -61 -441 0 -189 4 -350 7 -358 3 -8
10 -12 16 -9 6 4 10 133 10 358 l0 352 27 52 c14 29 30 53 35 53 4 0 8 5 8 10
0 17 -15 11 -42 -17z"/>
<path d="M6181 13074 c-17 -14 -47 -55 -66 -92 -105 -194 -391 -755 -412 -807
-7 -16 -21 -46 -33 -65 -47 -81 -7 -160 80 -160 l44 0 -31 28 c-17 15 -36 42
-42 61 -18 55 1 104 114 306 13 22 78 146 145 275 67 129 152 290 187 358 36
67 60 122 55 122 -6 0 -24 -12 -41 -26z"/>
<path d="M6433 12908 c-22 -27 -34 -59 -27 -70 5 -8 10 -5 15 8 7 17 8 17 8
-3 1 -13 7 -23 14 -23 6 0 22 -18 35 -40 12 -22 29 -40 37 -40 9 0 23 -4 33
-9 36 -20 111 -50 212 -86 121 -42 218 -83 241 -102 8 -7 25 -13 38 -13 26 0
96 28 89 36 -3 3 -52 18 -109 35 -57 16 -171 52 -254 78 -82 27 -168 54 -190
60 -22 6 -55 23 -74 39 -30 25 -35 35 -39 85 -5 57 -11 67 -29 45z"/>
<path d="M13535 12860 c-16 -31 -32 -42 -21 -15 6 17 -9 21 -20 4 -3 -6 1 -18
9 -26 14 -14 17 -11 36 26 12 22 19 41 16 41 -2 0 -11 -13 -20 -30z"/>
<path d="M13491 12800 c2 -8 -3 -26 -10 -38 -7 -13 -10 -26 -8 -29 3 -3 13 10
22 27 13 25 14 35 5 44 -9 8 -11 7 -9 -4z"/>
<path d="M4485 12588 c-27 -26 -37 -44 -41 -80 -9 -69 21 -96 151 -132 55 -16
116 -36 135 -46 19 -10 90 -34 157 -54 67 -20 173 -55 235 -77 62 -22 138 -47
168 -55 30 -8 88 -26 129 -40 51 -18 80 -23 94 -17 14 7 -97 47 -455 166 -260
86 -484 164 -497 173 -47 33 -61 116 -29 177 14 28 -9 20 -47 -15z"/>
<path d="M11060 12535 c-134 -62 -215 -85 -302 -85 -71 0 -213 35 -301 74 -32
14 -64 26 -72 26 -26 0 -17 -40 14 -57 16 -10 33 -26 38 -37 5 -12 8 -15 6 -8
-3 16 -6 16 84 -14 111 -38 277 -45 388 -16 135 34 295 120 295 157 0 24 -28
17 -150 -40z"/>
<path d="M6440 12268 c-37 -51 -38 -89 -4 -134 22 -28 33 -34 65 -34 43 0 49
9 19 27 -44 28 -61 107 -36 166 15 33 -14 17 -44 -25z"/>
<path d="M18241 12062 c-5 -10 -13 -45 -16 -78 -6 -47 -3 -68 9 -92 9 -18 19
-32 22 -32 2 0 0 9 -6 19 -5 11 -10 52 -10 91 0 39 5 80 10 91 6 10 8 19 6 19
-3 0 -10 -8 -15 -18z"/>
<path d="M17119 12054 c-18 -22 -24 -128 -9 -164 7 -17 22 -35 32 -41 19 -10
19 -9 -1 18 -25 33 -32 144 -12 181 14 26 9 29 -10 6z"/>
<path d="M15987 11979 c-9 -60 6 -118 34 -135 10 -6 10 -3 -1 11 -9 11 -17 48
-20 99 l-5 81 -8 -56z"/>
<path d="M10069 12003 c12 -24 31 -39 31 -25 0 5 -10 17 -21 28 -22 19 -22 19
-10 -3z"/>
<path d="M10570 11590 c8 -5 22 -9 30 -9 10 0 8 3 -5 9 -27 12 -43 12 -25 0z"/>
<path d="M10763 11543 c9 -2 25 -2 35 0 9 3 1 5 -18 5 -19 0 -27 -2 -17 -5z"/>
<path d="M10986 11463 c12 -121 10 -441 -3 -454 -7 -7 -32 -14 -55 -15 -61 -4
-227 -31 -333 -55 -214 -49 -387 -92 -485 -120 -314 -90 -691 -284 -990 -508
-134 -100 -378 -338 -472 -461 -73 -94 -208 -287 -216 -309 -4 -11 40 -13 284
-9 612 10 868 -30 1001 -155 29 -27 55 -59 59 -71 3 -11 15 -39 25 -62 34 -77
74 -251 125 -549 13 -77 33 -189 44 -250 20 -114 52 -302 96 -560 80 -466 102
-585 103 -561 1 11 -4 59 -10 107 -14 106 -6 163 20 156 18 -4 20 6 25 121 0
18 8 37 16 42 8 5 14 24 13 46 0 21 5 44 12 50 7 7 11 25 10 39 -2 16 2 28 11
32 17 6 18 30 2 36 -9 4 -8 6 2 6 12 1 15 16 15 76 0 41 2 75 5 75 6 0 12 47
13 105 1 25 7 42 17 47 13 6 13 7 -1 7 -11 1 -16 11 -16 35 0 24 4 33 14 29 7
-3 13 0 13 5 0 6 -8 13 -17 15 -16 4 -16 5 -1 6 12 1 17 14 20 54 2 28 8 61
12 72 6 16 6 17 -3 5 -9 -13 -11 -13 -11 3 0 9 5 17 10 17 6 0 5 8 -2 20 -9
14 -10 23 -3 28 6 4 10 24 9 44 -1 24 2 35 9 31 6 -4 8 0 4 10 -3 9 1 24 10
33 14 13 14 17 2 25 -12 7 -12 9 1 9 13 0 13 1 0 10 -12 8 -13 11 -1 19 11 7
11 9 0 14 -10 4 -10 6 -1 6 6 1 12 12 12 26 0 14 4 25 9 25 4 0 7 11 6 24 -2
14 5 32 16 42 15 14 17 19 7 26 -10 6 -10 10 2 19 11 8 12 12 3 16 -18 7 -16
21 5 26 16 4 16 5 0 6 -21 1 -25 21 -5 21 8 0 14 6 15 13 4 40 9 54 27 70 16
15 17 20 5 27 -13 9 -13 10 0 10 13 0 13 1 0 10 -13 9 -13 11 0 20 13 9 13 10
0 10 -12 0 -13 2 -1 9 11 7 11 9 0 13 -11 4 -9 10 6 24 11 11 20 29 19 42 -1
12 3 22 7 22 5 0 9 11 9 25 0 17 6 25 18 25 16 1 16 1 0 14 -22 16 -23 30 -2
22 8 -3 12 -2 9 4 -3 6 -2 10 4 10 6 0 8 6 5 14 -3 8 4 21 16 29 15 11 18 16
8 20 -10 4 -10 8 2 16 13 10 13 11 0 11 -13 0 -13 2 0 9 8 6 17 8 20 6 4 -2 6
6 5 18 -1 12 7 30 19 40 17 15 18 20 6 27 -12 8 -11 10 5 10 17 0 20 7 22 42
1 26 8 47 18 54 12 9 13 13 3 17 -10 4 -10 8 2 16 13 10 13 11 0 11 -13 0 -13
2 0 9 8 6 17 8 20 6 4 -2 6 14 4 36 -2 31 1 39 11 35 8 -3 17 -1 20 3 3 5 -2
12 -11 15 -15 6 -15 8 1 26 14 15 15 20 4 20 -12 0 -12 2 1 9 8 6 18 7 24 4 5
-3 6 -1 2 5 -4 6 -13 9 -21 5 -8 -3 -15 0 -15 6 0 10 13 15 32 12 4 0 4 11 2
25 -4 24 -3 25 11 10 9 -9 18 -16 20 -16 7 0 -1 36 -10 42 -5 4 1 8 14 8 20 0
22 2 11 15 -11 13 -8 21 15 45 18 19 24 30 15 30 -9 0 -6 6 8 16 12 8 22 21
22 27 0 7 -4 6 -10 -3 -5 -8 -10 -10 -10 -4 0 6 11 21 25 34 19 18 22 26 13
32 -10 6 -10 8 -1 8 7 0 17 -8 23 -17 10 -15 11 -15 6 -1 -2 9 4 24 15 34 15
13 16 19 7 26 -11 6 -11 8 0 8 7 0 17 -10 22 -22 9 -20 10 -21 8 -3 -1 26 11
55 24 55 6 0 7 -8 4 -17 -5 -16 -5 -16 6 -2 17 20 56 30 62 15 3 -6 4 -2 3 9
-2 16 4 20 25 19 18 -1 25 3 21 12 -3 9 3 14 17 14 16 0 21 -4 16 -16 -5 -14
-4 -15 9 -4 9 7 14 19 11 26 -6 17 42 64 59 58 7 -3 16 0 20 5 3 6 11 9 16 6
5 -4 8 15 6 45 -2 39 2 55 15 67 14 13 16 18 6 25 -9 5 -5 8 11 8 19 0 21 3
11 15 -6 8 -9 19 -5 24 3 6 0 8 -9 5 -8 -3 -19 3 -25 14 -8 15 -26 21 -78 26
-102 11 -117 14 -164 37 -24 11 -33 18 -19 15 31 -7 171 -23 263 -30 73 -6 85
8 17 19 -34 6 -40 11 -40 31 0 13 -4 24 -10 24 -13 0 -13 41 1 76 5 16 13 60
16 98 3 39 9 78 13 86 4 8 11 42 15 75 4 33 14 94 22 135 8 41 19 95 24 119
10 50 28 103 46 141 23 45 21 46 -252 86 -55 8 -106 16 -113 19 -11 4 -12 -8
-6 -62z m-91 -783 c3 -6 -1 -7 -9 -4 -18 7 -21 14 -7 14 6 0 13 -4 16 -10z
m55 -20 c13 -9 13 -10 0 -10 -8 0 -22 5 -30 10 -13 9 -13 10 0 10 8 0 22 -5
30 -10z m280 -280 c0 -5 -4 -10 -10 -10 -5 0 -10 5 -10 10 0 6 5 10 10 10 6 0
10 -4 10 -10z m-550 -650 c0 -5 -4 -10 -10 -10 -5 0 -10 5 -10 10 0 6 5 10 10
10 6 0 10 -4 10 -10z m-360 -1350 c0 -5 -4 -10 -10 -10 -5 0 -10 5 -10 10 0 6
5 10 10 10 6 0 10 -4 10 -10z"/>
<path d="M18241 11462 c-5 -10 -12 -49 -16 -88 -6 -53 -4 -72 6 -81 12 -9 13
2 11 67 -2 45 1 87 8 99 6 12 8 21 6 21 -3 0 -10 -8 -15 -18z"/>
<path d="M16009 11453 c-13 -16 -12 -17 4 -4 16 13 21 21 13 21 -2 0 -10 -8
-17 -17z"/>
<path d="M17119 11453 c-9 -10 -14 -42 -14 -89 0 -59 4 -77 19 -91 18 -17 18
-17 6 6 -16 31 -17 140 -1 169 14 26 9 29 -10 5z"/>
<path d="M15987 11379 c-8 -56 1 -100 24 -115 9 -5 9 -3 3 7 -5 8 -11 48 -14
89 l-5 75 -8 -56z"/>
<path d="M11181 10327 c-13 -21 -12 -21 5 -5 10 10 16 20 13 22 -3 3 -11 -5
-18 -17z"/>
<path d="M13590 9943 c0 -7 -6 -13 -13 -13 -30 0 -137 -151 -137 -193 0 -12
-4 -27 -9 -32 -14 -14 -50 -144 -71 -255 -10 -52 -28 -135 -39 -183 -12 -48
-19 -92 -16 -97 3 -5 -2 -26 -10 -47 -9 -21 -19 -67 -22 -103 -3 -36 -11 -78
-19 -95 -15 -36 -78 -321 -93 -425 -6 -41 -14 -152 -18 -246 -14 -394 48 -681
198 -904 23 -35 89 -79 89 -60 0 5 11 12 24 16 15 3 27 15 30 30 4 15 14 24
25 24 12 0 21 9 25 24 3 14 14 27 24 31 9 3 32 26 51 51 19 25 47 58 63 72 15
15 28 32 28 39 0 7 13 19 30 28 16 8 46 29 65 46 29 26 34 36 30 62 -3 17 -8
34 -11 39 -3 4 0 8 5 8 6 0 11 9 11 19 0 14 5 18 20 14 11 -3 20 -10 21 -17 0
-6 2 -20 4 -31 2 -11 -1 -23 -8 -28 -8 -5 -5 -7 8 -5 12 2 19 -2 17 -9 -1 -7
7 -13 19 -13 15 0 19 -5 15 -15 -4 -11 2 -15 27 -16 22 0 27 -2 15 -7 -17 -7
-16 -8 2 -20 16 -10 20 -10 20 0 1 7 7 2 14 -11 13 -23 13 -22 18 25 6 61 65
192 136 303 29 46 51 90 48 97 -3 7 1 17 8 21 12 7 24 44 28 81 1 6 5 12 10
12 4 0 8 8 8 18 0 10 5 23 11 29 17 17 12 131 -6 149 -17 17 -21 39 -5 29 6
-3 10 -1 10 4 0 6 -4 11 -10 11 -8 0 -23 39 -25 63 0 4 -6 11 -13 16 -7 4 -12
12 -11 17 2 5 -5 26 -14 48 -9 21 -17 42 -17 47 0 5 -5 9 -11 9 -6 0 -9 6 -6
14 3 8 -1 20 -9 26 -8 7 -14 18 -14 26 0 7 -7 20 -16 28 -8 9 -11 16 -5 16 6
0 0 18 -14 40 -14 22 -25 46 -25 55 0 8 -4 15 -8 15 -5 0 -15 19 -22 43 -8 23
-20 50 -28 59 -8 9 -11 21 -8 26 3 6 -1 12 -9 16 -8 3 -15 14 -15 25 0 11 -5
23 -11 27 -6 3 -20 26 -31 50 -10 24 -23 44 -29 44 -6 0 -7 5 -4 11 4 6 -2 19
-14 30 -12 11 -21 25 -21 32 0 7 -9 18 -21 25 -11 7 -18 19 -16 26 3 7 -5 20
-18 30 -13 10 -29 32 -36 49 -7 18 -19 36 -26 40 -7 4 -13 14 -13 22 0 14 -16
38 -50 73 -8 9 -13 17 -10 18 3 2 -3 12 -12 24 -10 11 -13 20 -7 20 8 0 8 4 0
14 -14 17 -26 138 -17 163 10 23 13 172 4 176 -3 1 -8 16 -11 34 -7 44 -17 59
-28 42 -8 -12 -11 -11 -19 1 -6 10 -10 11 -10 3z"/>
<path d="M17290 9600 c-6 -11 -13 -50 -17 -88 -3 -37 -11 -73 -17 -81 -6 -8
-42 -34 -80 -59 -56 -35 -75 -43 -99 -38 -30 6 -30 6 -12 -14 26 -29 47 -25
109 19 31 21 69 44 85 51 35 14 37 20 46 115 4 39 9 80 12 93 6 28 -12 29 -27
2z"/>
<path d="M17779 9583 c-20 -22 -40 -47 -45 -55 -5 -8 -20 -22 -34 -31 l-24
-17 31 0 c18 0 37 6 42 13 6 6 24 29 41 49 19 23 30 46 28 59 -3 20 -6 19 -39
-18z"/>
<path d="M4039 9496 c-110 -29 -144 -90 -136 -244 7 -118 26 -235 122 -717 33
-165 70 -356 100 -515 13 -69 36 -183 50 -255 25 -126 49 -253 100 -515 13
-69 36 -183 50 -255 14 -71 37 -187 51 -257 13 -71 35 -185 49 -255 13 -71 34
-182 45 -248 12 -66 25 -129 30 -140 5 -11 18 -74 30 -140 21 -119 45 -248 95
-500 29 -145 63 -321 94 -495 12 -63 25 -126 30 -140 5 -14 12 -38 16 -54 3
-16 18 -55 32 -87 21 -47 29 -56 40 -48 10 9 13 8 13 -5 0 -9 -5 -16 -12 -16
-6 0 -9 -2 -7 -5 3 -2 15 -2 28 2 18 4 22 11 18 30 -2 13 -1 26 4 28 11 8 4
56 -10 64 -6 4 -13 31 -15 61 -3 33 -1 48 5 39 10 -16 10 -15 15 24 2 18 -1
25 -8 21 -7 -5 -9 -1 -5 9 4 10 1 17 -6 17 -9 0 -8 3 1 9 11 6 10 10 -3 15
-10 4 -15 12 -11 22 3 8 2 13 -2 10 -4 -2 -8 29 -8 71 0 60 -4 77 -17 85 -9 5
-17 14 -17 19 0 6 5 7 10 4 6 -3 10 -2 10 4 0 5 -6 12 -12 14 -10 4 -10 6 0 6
17 1 16 61 -2 61 -7 0 -16 9 -19 20 -3 11 -2 18 2 16 4 -3 7 4 8 14 1 11 -3
22 -8 25 -5 4 -7 11 -4 16 4 5 -1 12 -9 15 -9 3 -16 11 -16 16 0 6 6 8 14 5
11 -4 13 0 11 15 -3 11 -7 23 -11 27 -4 3 -4 -2 -1 -12 5 -13 3 -17 -5 -15 -7
3 -13 21 -14 41 -1 20 2 34 7 31 5 -3 9 0 9 5 0 6 -6 11 -12 12 -7 0 -4 4 7 9
17 7 17 9 3 9 -10 1 -18 6 -18 12 0 5 6 7 13 3 7 -5 6 -1 -3 10 -19 24 -25 60
-8 50 7 -4 6 1 -3 12 -8 10 -15 35 -14 54 1 19 -4 41 -9 49 -9 12 -8 13 4 6
13 -8 13 -6 2 8 -8 9 -11 20 -9 24 3 5 -1 19 -8 33 -9 18 -10 28 -2 41 6 10 8
22 4 26 -5 4 -12 1 -17 -7 -8 -12 -10 -10 -10 7 0 17 4 21 18 16 16 -5 16 -5
0 8 -10 9 -16 28 -15 49 0 20 -2 40 -5 46 -4 6 -5 19 -4 30 2 10 0 24 -4 29
-4 6 -13 27 -18 48 -8 27 -7 37 1 37 9 0 9 2 0 8 -6 4 -13 25 -15 47 -2 22 -7
46 -11 52 -4 6 -4 18 -1 27 3 9 1 23 -6 31 -6 8 -9 18 -6 24 3 5 0 12 -6 14
-10 4 -10 6 0 6 14 1 17 31 3 31 -15 0 -22 32 -10 47 9 11 8 16 -6 27 -12 8
-16 20 -12 35 3 11 1 19 -4 15 -13 -8 -11 10 3 24 10 10 10 15 -1 21 -7 5 -11
13 -7 19 3 6 -2 15 -11 21 -10 6 -12 11 -5 11 19 0 14 30 -5 31 -15 0 -15 2 2
9 17 7 17 9 3 9 -13 1 -17 8 -14 24 2 12 -1 28 -6 35 -7 8 -6 17 2 27 10 12
10 15 -3 15 -13 0 -15 8 -11 43 4 31 2 38 -5 27 -7 -9 -11 -10 -11 -3 0 6 4
14 10 18 5 3 7 12 4 20 -4 8 -10 13 -14 10 -4 -3 -10 2 -14 10 -3 8 3 19 12
25 16 9 16 11 0 20 -15 9 -16 14 -5 31 10 16 9 21 -2 28 -8 5 -16 19 -18 32
-3 19 -1 20 14 8 11 -8 9 -3 -4 12 -14 16 -20 32 -17 46 3 11 1 24 -5 27 -6 4
-11 12 -11 17 0 6 4 8 8 5 5 -3 9 1 9 9 0 8 -4 12 -8 10 -12 -8 -18 49 -6 57
9 6 8 11 -3 18 -17 11 -23 100 -6 100 6 0 0 7 -12 16 -16 11 -21 22 -17 35 4
11 1 26 -5 34 -6 8 -9 19 -5 25 3 5 0 10 -7 10 -9 0 -9 3 2 10 11 7 12 12 4
18 -14 9 -20 60 -9 85 10 23 -3 36 -16 17 -7 -11 -8 -6 -4 15 2 17 -2 43 -10
59 -11 21 -12 32 -5 41 8 9 8 15 0 20 -14 9 -13 28 3 19 9 -5 9 -4 0 6 -6 7
-9 19 -6 28 4 9 2 13 -4 9 -6 -4 -14 0 -17 9 -4 10 -2 13 7 8 6 -4 4 2 -5 13
-22 24 -24 40 -3 23 9 -7 15 -8 15 -2 0 5 -7 13 -16 16 -8 3 -13 9 -10 14 2 4
1 14 -4 22 -5 8 -5 21 1 31 11 22 2 49 -17 49 -16 0 -19 16 -3 25 6 5 4 11 -6
19 -16 12 -12 46 6 46 5 0 9 4 9 10 0 5 -6 7 -14 4 -10 -4 -14 1 -13 15 1 12
7 21 13 21 7 0 10 8 7 20 -6 23 -19 26 -27 8 -2 -7 -3 -2 -2 12 2 14 -1 34 -7
45 -9 18 -9 19 7 6 9 -8 19 -11 23 -7 3 3 1 6 -5 6 -7 0 -12 7 -12 16 0 9 -5
12 -12 8 -7 -5 -9 -2 -5 8 3 9 0 21 -6 28 -9 10 -9 11 3 6 9 -5 8 -2 -2 7 -21
17 -24 31 -4 24 15 -6 16 17 1 30 -4 4 -5 2 -1 -4 4 -7 3 -13 -2 -13 -5 0 -12
11 -14 25 -6 27 1 32 19 14 9 -9 11 -7 6 9 -3 13 -10 19 -19 15 -15 -6 -15 21
0 45 4 7 2 19 -4 27 -7 8 -9 15 -5 15 4 0 2 6 -4 14 -7 8 -14 27 -17 43 -3 22
-2 25 6 13 9 -12 10 -10 5 10 -4 14 -14 30 -21 36 -8 7 -17 24 -20 40 -4 24
-3 26 11 14 12 -10 15 -10 15 4 0 9 -8 16 -17 17 -15 0 -15 2 2 9 17 7 17 9 3
9 -18 1 -19 18 -3 54 9 21 -3 37 -14 18 -6 -10 -10 -9 -14 4 -4 9 -3 13 3 10
6 -3 10 -2 10 4 0 5 -6 11 -12 14 -10 3 -10 8 1 21 13 15 13 19 0 28 -12 8
-12 10 0 15 10 4 8 9 -10 20 -16 10 -18 12 -5 8 20 -6 20 -6 1 16 -22 23 -29
79 -10 79 15 0 13 34 -3 53 -7 8 -12 19 -11 23 1 5 0 11 -1 14 -2 6 -7 26 -14
59 -3 14 0 31 6 39 9 10 8 16 -3 23 -12 8 -12 10 1 19 12 7 12 12 2 22 -14 14
-16 32 -2 23 6 -3 10 -2 10 4 0 5 -6 12 -12 14 -10 4 -10 6 0 6 6 1 12 6 12
12 0 5 -5 7 -10 4 -7 -4 -9 2 -4 19 4 19 2 28 -10 32 -19 7 -22 28 -3 21 12
-4 47 29 47 45 0 13 -12 9 -26 -9 -12 -17 -13 -16 -11 4 0 12 5 19 9 17 4 -3
8 -1 8 4 0 10 67 82 77 82 3 0 2 -7 -1 -16 -3 -9 -2 -12 5 -8 6 3 8 15 6 26
-5 19 -5 19 14 2 18 -17 20 -17 32 1 11 15 25 17 85 13 44 -2 73 0 76 7 2 5 5
4 5 -2 1 -7 6 -13 12 -13 5 0 8 4 4 9 -11 18 77 3 90 -16 10 -14 16 -15 27 -5
8 6 18 9 21 5 4 -3 7 1 7 10 0 25 17 21 24 -5 6 -23 6 -23 22 -3 10 14 17 17
22 8 4 -7 21 -11 37 -9 17 2 35 -1 42 -6 14 -11 33 -2 33 16 0 7 8 12 18 11
22 -2 74 -16 87 -24 17 -9 60 -7 68 4 4 6 11 5 17 -5 8 -13 10 -12 11 5 0 18
1 18 7 2 7 -16 10 -16 27 -3 14 10 24 11 33 4 7 -6 15 -8 19 -5 3 4 13 1 20
-5 12 -10 14 -8 11 7 -1 10 3 20 11 23 8 2 11 0 8 -5 -11 -18 8 -31 38 -25
l30 6 -25 7 c-19 5 -15 7 20 7 25 0 37 -2 28 -5 -27 -7 -21 -23 7 -21 20 2 24
7 20 23 -3 11 -2 14 1 7 3 -6 11 -9 16 -6 6 4 18 -2 26 -12 13 -16 14 -17 9
-1 -6 15 1 17 49 17 41 0 54 -3 49 -12 -4 -7 1 -4 10 7 13 16 17 17 24 6 6 -8
16 -11 31 -6 15 5 20 3 16 -3 -3 -6 -2 -13 3 -17 5 -3 14 3 20 12 9 17 10 17
23 0 14 -19 77 -21 91 -2 4 6 11 4 17 -5 9 -12 10 -12 8 5 -3 19 2 20 118 17
66 -1 135 -4 152 -6 18 -2 32 1 32 6 0 5 5 6 11 2 19 -12 189 -12 189 0 0 7 3
8 8 1 8 -12 71 -13 88 -2 7 4 14 0 17 -7 3 -8 15 -14 26 -13 11 0 17 5 15 9
-3 4 4 8 15 8 14 0 19 -5 15 -15 -4 -8 -1 -15 5 -15 6 0 11 7 11 15 0 11 13
15 53 16 28 1 55 1 60 0 16 -2 76 -2 175 1 56 2 102 0 102 -3 0 -10 70 -16 76
-7 3 4 10 8 15 8 6 0 7 -6 3 -12 -6 -10 -5 -10 7 -1 11 9 19 9 26 2 6 -6 19
-6 37 1 15 5 31 8 36 5 5 -3 12 0 15 6 4 5 13 8 21 5 7 -3 62 -6 123 -7 97 -1
109 -3 104 -18 -5 -14 -4 -14 8 1 16 20 39 19 65 -2 16 -13 17 -13 11 3 -5 14
0 17 36 19 23 0 53 1 67 0 25 -2 25 -1 3 8 -30 12 -30 31 0 26 12 -3 28 -5 36
-5 7 -1 11 -7 7 -16 -6 -16 8 -17 184 -17 98 0 100 1 94 17 -8 19 5 20 20 1
14 -18 83 -28 90 -12 3 8 7 8 13 -1 5 -8 14 -9 23 -3 8 5 25 7 37 3 19 -4 23
-1 23 16 0 12 5 21 10 21 6 0 10 -6 10 -12 0 -10 2 -10 8 0 13 19 62 11 62
-10 0 -19 -1 -18 120 -20 95 -1 108 2 113 20 4 16 5 16 6 0 1 -16 17 -17 164
-18 200 -1 196 -1 191 -14 -3 -7 16 -12 51 -13 55 -1 76 12 33 20 -13 2 0 6
27 7 28 2 56 4 64 4 8 1 16 6 18 12 2 7 13 10 23 7 11 -3 20 -1 20 5 0 12 -36
21 -70 17 -14 -1 -31 2 -38 8 -10 8 -16 7 -23 -4 -7 -12 -9 -12 -9 1 0 13 -1
13 -11 0 -6 -9 -12 -11 -15 -4 -3 6 -44 9 -117 7 -66 -2 -127 1 -149 8 -26 9
-41 9 -50 1 -18 -14 -48 -17 -82 -8 -19 5 -32 3 -37 -5 -5 -9 -11 -9 -22 3
-11 11 -27 13 -64 8 -27 -3 -63 -3 -78 2 -16 4 -32 4 -35 0 -3 -5 -27 -7 -55
-6 -27 1 -58 -2 -70 -6 -11 -4 -39 -2 -65 6 -34 10 -46 11 -52 1 -6 -9 -8 -9
-8 1 0 6 -5 12 -11 12 -5 0 -7 -4 -4 -10 3 -5 1 -10 -4 -10 -6 0 -11 5 -11 10
0 17 -90 12 -96 -5 -4 -8 -11 -12 -17 -8 -6 4 -73 8 -149 8 l-138 2 -1 -26
c-1 -20 -3 -22 -6 -6 -5 25 -43 53 -43 33 0 -9 -3 -8 -10 2 -6 9 -10 10 -10 3
0 -8 -14 -11 -37 -9 -21 2 -44 -2 -51 -7 -9 -7 -11 -6 -6 7 3 9 1 16 -5 16 -6
0 -11 -4 -11 -9 0 -5 -20 -8 -45 -7 -25 0 -45 5 -45 9 0 5 -14 5 -32 2 -43
-10 -138 -14 -138 -6 0 7 -210 7 -358 0 -57 -2 -92 0 -92 6 0 6 -5 3 -10 -5
-6 -10 -10 -11 -10 -2 0 6 -11 12 -25 12 -14 0 -25 -4 -25 -10 0 -14 -27 -12
-33 3 -4 9 -8 9 -15 -2 -6 -9 -17 -11 -28 -7 -11 4 -21 7 -24 7 -3 1 -11 6
-19 12 -12 10 -14 9 -9 -4 5 -14 -2 -17 -42 -18 -40 0 -48 2 -44 14 5 11 2 13
-10 9 -9 -3 -16 -10 -16 -14 0 -4 -26 -6 -57 -3 -75 5 -94 5 -306 -1 -154 -4
-179 -3 -184 10 -3 9 -8 12 -12 6 -9 -15 -113 -23 -152 -12 -35 10 -52 5 -29
-10 12 -7 12 -11 0 -25 -12 -15 -15 -14 -25 11 l-11 27 -227 2 c-154 2 -224
-1 -220 -8 4 -7 0 -8 -13 -2 -29 12 -134 15 -174 5 -22 -6 -38 -6 -44 0 -14
14 -56 12 -56 -2 0 -8 -3 -9 -8 -3 -4 6 -68 10 -162 10 -85 0 -191 5 -235 12
-44 6 -96 13 -115 16 -19 2 -56 -1 -81 -7z m2986 -46 c4 -6 11 -7 17 -4 6 4 9
1 6 -7 -3 -8 -15 -13 -29 -11 -29 5 -33 8 -24 21 8 14 22 14 30 1z m1022 -22
c-3 -7 -5 -2 -5 12 0 14 2 19 5 13 2 -7 2 -19 0 -25z m-3501 3 c-4 -6 -14 -7
-23 -4 -15 6 -14 7 3 13 22 9 29 6 20 -9z m184 9 c0 -5 -4 -10 -10 -10 -5 0
-10 5 -10 10 0 6 5 10 10 10 6 0 10 -4 10 -10z m350 0 c0 -5 -4 -10 -10 -10
-5 0 -10 5 -10 10 0 6 5 10 10 10 6 0 10 -4 10 -10z m50 0 c0 -5 -4 -10 -10
-10 -5 0 -10 5 -10 10 0 6 5 10 10 10 6 0 10 -4 10 -10z m2900 0 c0 -5 -4 -10
-10 -10 -5 0 -10 5 -10 10 0 6 5 10 10 10 6 0 10 -4 10 -10z m590 -14 c0 -6 5
-4 10 4 6 9 10 10 10 3 0 -19 -20 -26 -35 -13 -19 16 -19 31 0 24 8 -4 15 -11
15 -18z m-4200 4 c0 -5 -4 -10 -10 -10 -5 0 -10 5 -10 10 0 6 5 10 10 10 6 0
10 -4 10 -10z m174 -6 c3 -8 2 -12 -4 -9 -6 3 -10 10 -10 16 0 14 7 11 14 -7z
m1030 0 c4 -11 2 -15 -8 -11 -7 3 -19 0 -26 -6 -8 -8 -8 -5 1 11 16 26 25 28
33 6z m196 6 c0 -5 -4 -10 -10 -10 -5 0 -10 5 -10 10 0 6 5 10 10 10 6 0 10
-4 10 -10z m50 0 c0 -5 -4 -10 -10 -10 -5 0 -10 5 -10 10 0 6 5 10 10 10 6 0
10 -4 10 -10z m460 0 c0 -5 -4 -10 -10 -10 -5 0 -10 5 -10 10 0 6 5 10 10 10
6 0 10 -4 10 -10z m510 2 c0 -4 -9 -8 -20 -9 -11 -1 -20 2 -20 8 0 5 9 9 20 9
11 0 20 -4 20 -8z m80 -2 c0 -5 -4 -10 -10 -10 -5 0 -10 5 -10 10 0 6 5 10 10
10 6 0 10 -4 10 -10z m400 0 c0 -5 -4 -10 -10 -10 -5 0 -10 5 -10 10 0 6 5 10
10 10 6 0 10 -4 10 -10z m1250 0 c0 -5 -4 -10 -10 -10 -5 0 -10 5 -10 10 0 6
5 10 10 10 6 0 10 -4 10 -10z m150 0 c0 -5 -4 -10 -10 -10 -5 0 -10 5 -10 10
0 6 5 10 10 10 6 0 10 -4 10 -10z m-4440 -20 c0 -5 -4 -10 -10 -10 -5 0 -10 5
-10 10 0 6 5 10 10 10 6 0 10 -4 10 -10z m500 0 c0 -5 -4 -10 -10 -10 -5 0
-10 5 -10 10 0 6 5 10 10 10 6 0 10 -4 10 -10z m300 0 c0 -5 -4 -10 -10 -10
-5 0 -10 5 -10 10 0 6 5 10 10 10 6 0 10 -4 10 -10z m1200 0 c0 -5 -4 -10 -10
-10 -5 0 -10 5 -10 10 0 6 5 10 10 10 6 0 10 -4 10 -10z"/>
<path d="M4340 9390 c0 -5 5 -10 11 -10 5 0 7 5 4 10 -3 6 -8 10 -11 10 -2 0
-4 -4 -4 -10z"/>
<path d="M6350 9390 c0 -5 5 -10 10 -10 6 0 10 5 10 10 0 6 -4 10 -10 10 -5 0
-10 -4 -10 -10z"/>
<path d="M7165 9390 c3 -5 8 -10 11 -10 2 0 4 5 4 10 0 6 -5 10 -11 10 -5 0
-7 -4 -4 -10z"/>
<path d="M7855 9390 c3 -5 8 -10 11 -10 2 0 4 5 4 10 0 6 -5 10 -11 10 -5 0
-7 -4 -4 -10z"/>
<path d="M8560 9390 c0 -5 5 -10 10 -10 6 0 10 5 10 10 0 6 -4 10 -10 10 -5 0
-10 -4 -10 -10z"/>
<path d="M16871 9325 c-18 -24 -19 -29 -5 -63 8 -20 24 -53 34 -73 21 -39 26
-84 11 -93 -5 -3 -21 -36 -36 -73 -15 -38 -39 -78 -53 -91 l-27 -22 35 2 c25
2 38 10 47 28 25 48 83 179 83 186 0 5 -16 41 -36 81 -31 64 -34 77 -25 108
11 41 0 45 -28 10z"/>
<path d="M4144 9012 c2 -9 8 -17 15 -18 8 -2 8 -1 0 3 -8 4 -8 7 1 13 9 5 8 9
-3 13 -10 4 -14 0 -13 -11z"/>
<path d="M16710 8902 c-43 -17 -45 -20 -48 -60 -3 -35 1 -46 20 -62 27 -21 38
-18 15 5 -12 11 -15 26 -10 48 7 40 12 45 60 68 49 22 22 23 -37 1z"/>
<path d="M17707 8868 c55 -39 83 -94 83 -160 0 -91 -33 -147 -115 -192 l-30
-17 37 5 c82 10 138 82 145 184 5 61 2 71 -24 110 -29 43 -91 92 -115 92 -7 0
2 -10 19 -22z"/>
<path d="M4173 8822 c2 -12 6 -24 10 -28 3 -4 4 4 2 16 -6 30 -16 40 -12 12z"/>
<path d="M16793 8712 c13 -15 37 -149 37 -208 0 -13 -9 -31 -19 -41 -37 -35
-91 -108 -91 -124 0 -9 9 -27 20 -40 l21 -24 -2 30 c-2 49 -1 51 52 109 27 30
51 63 51 73 2 38 -23 208 -33 219 -5 6 -19 14 -30 17 -19 5 -19 4 -6 -11z"/>
<path d="M15874 8554 c10 -15 28 -43 39 -62 12 -20 23 -30 25 -23 6 19 -44
106 -64 110 -17 3 -17 2 0 -25z"/>
<path d="M4240 8406 c0 -2 7 -9 15 -16 9 -7 15 -8 15 -2 0 5 -7 12 -15 16 -8
3 -15 4 -15 2z"/>
<path d="M16960 8250 c6 -10 33 -45 61 -77 l51 -58 -8 -55 c-11 -82 -10 -143
2 -147 7 -2 16 24 24 69 20 116 18 126 -29 168 -22 20 -41 41 -41 46 0 9 -57
74 -66 74 -3 0 0 -9 6 -20z"/>
<path d="M14268 8033 c-90 -95 -199 -279 -219 -370 -38 -173 -11 -303 89 -436
35 -46 144 -127 171 -127 18 0 9 19 -60 131 -84 136 -99 186 -99 327 0 130 24
236 60 262 11 8 20 20 20 26 0 6 8 22 19 35 14 19 46 117 44 139 0 3 3 15 8
28 5 12 7 22 6 22 -2 0 -19 -17 -39 -37z"/>
<path d="M17500 7869 c30 -75 53 -116 57 -102 5 15 -37 136 -51 145 -24 16
-25 6 -6 -43z"/>
<path d="M13860 7690 c0 -5 5 -10 10 -10 6 0 10 5 10 10 0 6 -4 10 -10 10 -5
0 -10 -4 -10 -10z"/>
<path d="M6716 7573 c-10 -3 -33 -14 -50 -24 -17 -10 -43 -24 -59 -30 -15 -6
-32 -20 -38 -30 -5 -10 -15 -19 -22 -19 -7 0 -31 -17 -54 -37 -23 -21 -53 -47
-67 -58 -14 -11 -25 -26 -26 -33 0 -7 -4 -10 -10 -7 -5 3 -10 -1 -10 -9 0 -9
-5 -16 -11 -16 -5 0 -7 -5 -4 -11 4 -6 -4 -22 -16 -36 -13 -15 -18 -23 -11
-19 13 8 17 -6 5 -18 -8 -7 -12 -24 -20 -73 -3 -18 -10 -33 -17 -33 -6 0 -4
-5 4 -10 13 -9 13 -10 0 -10 -13 0 -13 -1 0 -10 12 -8 13 -11 1 -19 -11 -7
-11 -9 0 -14 10 -4 10 -6 2 -6 -8 -1 -13 -14 -13 -32 0 -17 4 -28 10 -24 6 3
10 2 10 -4 0 -5 -4 -12 -9 -15 -7 -5 -8 -25 -2 -58 0 -5 7 -8 15 -8 23 0 60
-46 61 -77 0 -19 5 -27 14 -25 18 4 31 -16 31 -48 0 -20 2 -22 10 -10 11 17
40 4 49 -21 4 -12 2 -12 -12 0 -10 7 -17 9 -17 3 0 -5 6 -12 14 -15 9 -4 12
-14 9 -26 -6 -22 12 -30 20 -8 3 8 10 6 21 -8 l16 -20 -5 20 c-5 16 -3 16 6
-2 7 -13 18 -23 26 -23 7 0 13 -5 13 -11 0 -5 5 -7 11 -3 6 3 16 0 21 -7 8
-11 10 -12 15 -1 4 10 9 8 20 -7 13 -20 36 -23 59 -9 6 4 22 5 35 3 54 -11
148 -15 153 -7 3 5 -13 17 -35 26 -52 23 -46 29 11 10 103 -36 183 -27 209 22
9 16 30 52 48 79 17 28 37 70 43 95 16 57 15 186 -1 253 -12 51 -91 213 -132
271 -12 17 -22 36 -23 43 -7 43 -28 82 -52 93 l-27 13 25 7 c24 6 23 7 -13 19
-22 7 -51 19 -65 27 -26 13 -125 17 -166 7z m214 -37 c0 -11 -19 -15 -25 -6
-3 5 1 10 9 10 9 0 16 -2 16 -4z m-593 -595 c1 -14 -3 -18 -13 -14 -17 6 -18
20 -1 26 6 3 12 6 12 6 1 1 1 -8 2 -18z"/>
<path d="M7014 7495 c36 -19 47 -19 22 0 -11 8 -27 15 -35 15 -9 0 -3 -7 13
-15z"/>
<path d="M14534 7469 c-3 -5 -1 -9 5 -9 7 0 7 -8 1 -25 -6 -16 -6 -25 0 -25 5
0 7 -6 4 -14 -3 -7 2 -20 10 -29 12 -12 13 -17 3 -20 -9 -4 -9 -8 2 -15 7 -5
11 -14 7 -20 -3 -5 0 -12 8 -15 9 -4 13 -19 12 -44 -2 -41 11 -82 31 -98 7 -5
16 -39 19 -75 6 -63 17 -90 35 -90 5 0 55 18 112 41 167 66 297 151 297 194 0
12 -70 31 -155 41 -27 3 -57 8 -65 11 -8 4 -23 5 -32 4 -10 -1 -18 3 -18 8 0
6 -7 11 -15 11 -9 0 -27 11 -41 25 -14 14 -32 25 -40 25 -8 0 -12 5 -9 10 4 6
-7 10 -25 10 -25 0 -31 4 -26 15 3 9 0 15 -9 15 -8 0 -14 6 -12 13 1 7 -6 11
-17 9 -14 -3 -17 1 -13 12 4 10 1 16 -9 16 -8 0 -13 4 -10 9 3 5 -6 11 -19 14
-14 2 -28 0 -31 -4z"/>
<path d="M10171 7274 c0 -11 3 -14 6 -6 3 7 2 16 -1 19 -3 4 -6 -2 -5 -13z"/>
<path d="M6310 7199 c0 -5 5 -7 10 -4 6 3 10 8 10 11 0 2 -4 4 -10 4 -5 0 -10
-5 -10 -11z"/>
<path d="M10212 7040 c0 -14 2 -19 5 -12 2 6 2 18 0 25 -3 6 -5 1 -5 -13z"/>
<path d="M6330 6894 c0 -6 6 -17 14 -24 8 -6 12 -19 9 -28 -6 -14 -5 -15 9 -2
13 12 14 16 2 23 -7 4 -18 15 -23 25 -6 9 -11 12 -11 6z"/>
<path d="M4560 6635 c7 -9 15 -13 17 -11 7 7 -7 26 -19 26 -6 0 -6 -6 2 -15z"/>
<path d="M12740 5980 c-8 -5 -10 -10 -5 -10 6 0 17 5 25 10 8 5 11 10 5 10 -5
0 -17 -5 -25 -10z"/>
<path d="M3572 5264 c-29 -20 -70 -96 -42 -79 10 6 73 95 68 95 -2 0 -14 -7
-26 -16z"/>
<path d="M10655 5234 c-33 -14 -73 -30 -90 -36 -16 -6 -34 -15 -40 -21 -7 -7
-3 -7 10 -2 11 4 47 17 81 29 51 18 120 54 104 55 -3 0 -32 -11 -65 -25z"/>
<path d="M3347 5233 c-19 -23 -23 -41 -14 -75 11 -40 24 -34 19 7 -3 22 2 45
12 60 19 29 7 34 -17 8z"/>
<path d="M3400 5075 l24 -26 -37 -70 c-32 -62 -35 -73 -24 -96 l12 -26 7 39
c6 40 19 67 52 118 l20 28 -34 29 c-40 36 -52 38 -20 4z"/>
<path d="M11080 4798 l-75 -12 100 -12 c223 -29 310 -46 535 -107 51 -14 119
-30 306 -71 40 -9 89 -16 110 -15 l39 1 -35 15 c-78 35 -335 117 -500 159
-147 39 -193 46 -290 49 -63 2 -149 -1 -190 -7z"/>
<path d="M7842 2824 c-49 -34 -67 -116 -37 -174 9 -17 17 -30 18 -30 1 0 3 19
4 42 3 52 30 137 51 161 13 14 13 17 1 17 -8 0 -25 -7 -37 -16z"/>
</g>
</svg>
